<?xml version="1.0" standalone="no"?>
<svg xmlns:xlink="http://www.w3.org/1999/xlink" id="wave" style="transform:rotate(180deg); transition: 0.3s" viewBox="0 0 1440 110" version="1.1" xmlns="http://www.w3.org/2000/svg"><defs><linearGradient id="sw-gradient-0" x1="0" x2="0" y1="1" y2="0"><stop stop-color="rgba(255, 249, 234, 1)" offset="0%"/><stop stop-color="rgba(255, 249, 234, 1)" offset="100%"/></linearGradient></defs><path style="transform:translate(0, 0px); opacity:1" fill="url(#sw-gradient-0)" d="M0,44L60,38.5C120,33,240,22,360,25.7C480,29,600,48,720,58.7C840,70,960,73,1080,62.3C1200,51,1320,26,1440,20.2C1560,15,1680,29,1800,40.3C1920,51,2040,59,2160,62.3C2280,66,2400,66,2520,67.8C2640,70,2760,73,2880,67.8C3000,62,3120,48,3240,44C3360,40,3480,48,3600,53.2C3720,59,3840,62,3960,60.5C4080,59,4200,51,4320,44C4440,37,4560,29,4680,27.5C4800,26,4920,29,5040,29.3C5160,29,5280,26,5400,36.7C5520,48,5640,73,5760,84.3C5880,95,6000,92,6120,78.8C6240,66,6360,44,6480,40.3C6600,37,6720,51,6840,62.3C6960,73,7080,81,7200,84.3C7320,88,7440,88,7560,86.2C7680,84,7800,81,7920,71.5C8040,62,8160,48,8280,36.7C8400,26,8520,18,8580,14.7L8640,11L8640,110L8580,110C8520,110,8400,110,8280,110C8160,110,8040,110,7920,110C7800,110,7680,110,7560,110C7440,110,7320,110,7200,110C7080,110,6960,110,6840,110C6720,110,6600,110,6480,110C6360,110,6240,110,6120,110C6000,110,5880,110,5760,110C5640,110,5520,110,5400,110C5280,110,5160,110,5040,110C4920,110,4800,110,4680,110C4560,110,4440,110,4320,110C4200,110,4080,110,3960,110C3840,110,3720,110,3600,110C3480,110,3360,110,3240,110C3120,110,3000,110,2880,110C2760,110,2640,110,2520,110C2400,110,2280,110,2160,110C2040,110,1920,110,1800,110C1680,110,1560,110,1440,110C1320,110,1200,110,1080,110C960,110,840,110,720,110C600,110,480,110,360,110C240,110,120,110,60,110L0,110Z"/></svg>